<svg width="52" height="52" viewBox="0 0 52 52" fill="none" xmlns="http://www.w3.org/2000/svg">
<path d="M25.5437 17.1028C20.8521 17.1028 17.0234 20.9479 17.0234 25.6597C17.0234 30.3714 20.8521 34.2165 25.5437 34.2165C30.2353 34.2165 34.0641 30.3714 34.0641 25.6597C34.0641 20.9479 30.2353 17.1028 25.5437 17.1028ZM51.0983 25.6597C51.0983 22.1162 51.1303 18.6049 50.9322 15.0679C50.734 10.9596 49.8008 7.31344 46.8094 4.30923C43.8116 1.2986 40.1875 0.367807 36.0967 0.16881C32.5684 -0.030187 29.072 0.00190937 25.5501 0.00190937C22.0218 0.00190937 18.5255 -0.030187 15.0036 0.16881C10.9128 0.367807 7.28222 1.30502 4.29083 4.30923C1.29305 7.31986 0.366237 10.9596 0.168089 15.0679C-0.0300581 18.6113 0.00190122 22.1227 0.00190122 25.6597C0.00190122 29.1967 -0.0300581 32.7144 0.168089 36.2514C0.366237 40.3598 1.29945 44.0059 4.29083 47.0101C7.28861 50.0207 10.9128 50.9515 15.0036 51.1505C18.5319 51.3495 22.0282 51.3174 25.5501 51.3174C29.0784 51.3174 32.5748 51.3495 36.0967 51.1505C40.1875 50.9515 43.818 50.0143 46.8094 47.0101C49.8072 43.9995 50.734 40.3598 50.9322 36.2514C51.1367 32.7144 51.0983 29.2031 51.0983 25.6597ZM25.5437 38.8256C18.289 38.8256 12.434 32.9455 12.434 25.6597C12.434 18.3738 18.289 12.4938 25.5437 12.4938C32.7985 12.4938 38.6534 18.3738 38.6534 25.6597C38.6534 32.9455 32.7985 38.8256 25.5437 38.8256ZM39.1903 15.0294C37.4965 15.0294 36.1286 13.6557 36.1286 11.9546C36.1286 10.2535 37.4965 8.87974 39.1903 8.87974C40.8842 8.87974 42.252 10.2535 42.252 11.9546C42.2525 12.3585 42.1737 12.7586 42.02 13.1318C41.8663 13.5051 41.6408 13.8443 41.3564 14.1299C41.072 14.4155 40.7343 14.642 40.3626 14.7964C39.9909 14.9507 39.5925 15.0299 39.1903 15.0294Z" fill="white"/>
</svg>
